<svg xmlns="http://www.w3.org/2000/svg" xmlns:svg="http://www.w3.org/2000/svg" xmlns:xlink="http://www.w3.org/1999/xlink" id="svg4136" width="169.065" height="169.065" version="1.1" viewBox="0 0 126.799 126.799" style="enable-background:new"><metadata id="metadata4248"/><defs id="defs4246"><linearGradient id="linearGradient1151"><stop style="stop-color:#82b1ff;stop-opacity:1" id="stop1147" offset="0"/><stop style="stop-color:#baecff;stop-opacity:1" id="stop1149" offset="1"/></linearGradient><linearGradient id="linearGradient4443" x1="85.971" x2="85.971" y1="6.727" y2="53.777" gradientUnits="userSpaceOnUse" xlink:href="#linearGradient1854"/><linearGradient id="linearGradient1854"><stop id="stop1852" offset="0" style="stop-color:#9fc3ff;stop-opacity:1"/><stop id="stop1850" offset="1" style="stop-color:#4e8aed;stop-opacity:1"/></linearGradient><linearGradient id="linearGradient1145" x1="85.971" x2="85.971" y1="6.727" y2="53.777" gradientUnits="userSpaceOnUse" xlink:href="#linearGradient1151"/></defs><g id="layer8" style="display:inline"><path style="fill:#1453bc;fill-opacity:1;stroke:none;stroke-width:.75000006px;stroke-linecap:butt;stroke-linejoin:miter;stroke-opacity:1" id="path3197" d="M 10.289119,49.471033 H 115.65604 V 84.68885 L 81.202592,119.65872 H 10.289119 Z"/><path style="color:#000;font-style:normal;font-variant:normal;font-weight:400;font-stretch:normal;font-size:medium;line-height:normal;font-family:sans-serif;text-indent:0;text-align:start;text-decoration:none;text-decoration-line:none;text-decoration-style:solid;text-decoration-color:#000;letter-spacing:normal;word-spacing:normal;text-transform:none;writing-mode:lr-tb;direction:ltr;baseline-shift:baseline;text-anchor:start;white-space:normal;clip-rule:nonzero;display:inline;overflow:visible;visibility:visible;opacity:.99640288;isolation:auto;mix-blend-mode:normal;color-interpolation:sRGB;color-interpolation-filters:linearRGB;solid-color:#000;solid-opacity:1;fill:#fff;fill-opacity:.2711111;fill-rule:nonzero;stroke:none;stroke-width:1.41999996;stroke-linecap:round;stroke-linejoin:miter;stroke-miterlimit:4;stroke-dasharray:none;stroke-dashoffset:0;stroke-opacity:1;color-rendering:auto;image-rendering:auto;shape-rendering:auto;text-rendering:auto;enable-background:accumulate" id="rect4561-9-5" d="m 13.336213,46.20027 v 0.708984 69.189456 H 82.782241 L 111.58426,85.729589 V 46.20027 Z m 1.419922,1.419922 H 110.16434 V 85.729589 L 82.867628,114.67878 H 14.756135 Z"/><path id="path4198-0" d="M 115.65604,84.68885 81.202592,119.65872 V 84.674539 Z" style="display:inline;opacity:1;fill:#0e3c87;fill-opacity:1;stroke:none;stroke-width:.09375;enable-background:new"/></g><g id="layer2" style="display:inline"><path style="color:#000;font-style:normal;font-variant:normal;font-weight:400;font-stretch:normal;font-size:medium;line-height:normal;font-family:sans-serif;text-indent:0;text-align:start;text-decoration:none;text-decoration-line:none;text-decoration-style:solid;text-decoration-color:#000;letter-spacing:normal;word-spacing:normal;text-transform:none;writing-mode:lr-tb;direction:ltr;baseline-shift:baseline;text-anchor:start;white-space:normal;clip-rule:nonzero;display:inline;overflow:visible;visibility:visible;opacity:.32582385;isolation:auto;mix-blend-mode:normal;color-interpolation:sRGB;color-interpolation-filters:linearRGB;solid-color:#000;solid-opacity:1;fill:#fff;fill-opacity:.27555554;fill-rule:nonzero;stroke:none;stroke-width:.57359999;stroke-linecap:round;stroke-linejoin:miter;stroke-miterlimit:4;stroke-dasharray:none;stroke-dashoffset:0;stroke-opacity:1;color-rendering:auto;image-rendering:auto;shape-rendering:auto;text-rendering:auto;enable-background:accumulate" id="rect4568-7" d="M 54.935376,53.516894 V 114.67878 H 55.50813 V 53.516894 Z m -32.128419,0.01183 v 61.150586 h 0.571288 V 53.52872 Z m 47.780275,-0.0177 v 61.167756 h 0.574219 V 53.511021 Z m -32.12842,0.01183 v 61.155936 h 0.574219 V 53.522855 Z"/><path style="color:#000;font-style:normal;font-variant:normal;font-weight:400;font-stretch:normal;font-size:medium;line-height:normal;font-family:sans-serif;text-indent:0;text-align:start;text-decoration:none;text-decoration-line:none;text-decoration-style:solid;text-decoration-color:#000;letter-spacing:normal;word-spacing:normal;text-transform:none;writing-mode:lr-tb;direction:ltr;baseline-shift:baseline;text-anchor:start;white-space:normal;clip-rule:nonzero;display:inline;overflow:visible;visibility:visible;opacity:.32582385;isolation:auto;mix-blend-mode:normal;color-interpolation:sRGB;color-interpolation-filters:linearRGB;solid-color:#000;solid-opacity:1;fill:#fff;fill-opacity:.27555554;fill-rule:nonzero;stroke:none;stroke-width:.71690983;stroke-linecap:round;stroke-linejoin:miter;stroke-miterlimit:4;stroke-dasharray:none;stroke-dashoffset:0;stroke-opacity:1;color-rendering:auto;image-rendering:auto;shape-rendering:auto;text-rendering:auto;enable-background:accumulate" id="rect4568-2" d="m 14.756135,63.882925 v 0.571289 h 95.408205 v -0.571289 z m 0,19.877928 v 0.574222 h 95.408245 v -0.574222 z"/><path style="color:#000;font-style:normal;font-variant:normal;font-weight:400;font-stretch:normal;font-size:medium;line-height:normal;font-family:sans-serif;text-indent:0;text-align:start;text-decoration:none;text-decoration-line:none;text-decoration-style:solid;text-decoration-color:#000;letter-spacing:normal;word-spacing:normal;text-transform:none;writing-mode:lr-tb;direction:ltr;baseline-shift:baseline;text-anchor:start;white-space:normal;clip-rule:nonzero;display:inline;overflow:visible;visibility:visible;opacity:.32582385;isolation:auto;mix-blend-mode:normal;color-interpolation:sRGB;color-interpolation-filters:linearRGB;solid-color:#000;solid-opacity:1;fill:#fff;fill-opacity:.27555554;fill-rule:nonzero;stroke:none;stroke-width:.57359999;stroke-linecap:round;stroke-linejoin:miter;stroke-miterlimit:4;stroke-dasharray:none;stroke-dashoffset:0;stroke-opacity:1;color-rendering:auto;image-rendering:auto;shape-rendering:auto;text-rendering:auto;enable-background:accumulate" id="rect4568-4" d="M 74.473463,53.510366 14.747386,99.440541 14.725411,100.13781 75.408032,53.510366 Z"/><path style="color:#000;font-style:normal;font-variant:normal;font-weight:400;font-stretch:normal;font-size:medium;line-height:normal;font-family:sans-serif;text-indent:0;text-align:start;text-decoration:none;text-decoration-line:none;text-decoration-style:solid;text-decoration-color:#000;letter-spacing:normal;word-spacing:normal;text-transform:none;writing-mode:lr-tb;direction:ltr;baseline-shift:baseline;text-anchor:start;white-space:normal;clip-rule:nonzero;display:inline;overflow:visible;visibility:visible;opacity:.32582385;isolation:auto;mix-blend-mode:normal;color-interpolation:sRGB;color-interpolation-filters:linearRGB;solid-color:#000;solid-opacity:1;fill:#fff;fill-opacity:.27555554;fill-rule:nonzero;stroke:none;stroke-width:.57359999;stroke-linecap:round;stroke-linejoin:miter;stroke-miterlimit:4;stroke-dasharray:none;stroke-dashoffset:0;stroke-opacity:1;color-rendering:auto;image-rendering:auto;shape-rendering:auto;text-rendering:auto;enable-background:accumulate" id="rect4568-4-1-3" d="m 18.955882,53.532339 62.24707,47.444821 v -0.71777 L 19.849437,53.532339 Z"/><path style="opacity:1;fill:#bfd0ec;stroke:#bfd0ec;stroke-width:.09375;enable-background:new" id="path4184-9" d="m 31.020336,64.533315 c -0.749756,-0.01025 -1.495118,0.138184 -2.182618,0.481933 -5.099999,2.400002 -6.900098,9.499806 -4.100098,14.299807 1.5,2.900003 4.999806,5.399415 8.299806,3.899415 6.2,-2.800005 7.199414,-12.099221 2.399413,-16.699221 -1.099999,-1.168751 -2.767041,-1.959375 -4.416503,-1.981934 z m 31.625977,0.03662 c -0.630688,0.02373 -1.271191,0.164064 -1.908691,0.445313 -5.5,2.400002 -6.800586,10.200392 -3.600586,14.90039 1.6,2.600003 4.899902,4.698825 7.899902,3.29883 5.2,-2.4 6.900098,-9.499805 4.100098,-14.299806 -1.21875,-2.356249 -3.757739,-4.447558 -6.490723,-4.344727 z M 45.756664,91.578726 c -1.33726,0.01005 -2.674021,0.13008 -4.696289,0.373537 -2.977693,0.358478 -8.13617,3.548678 -11.679199,4.450193 -3.057707,0.778027 -6.038087,-3.083498 -6.038087,-3.083498 v 3.244635 c 0,0 2.88683,3.799857 6.120118,2.976563 3.442994,-0.876705 8.61849,-3.99945 11.455078,-4.343265 4.139403,-0.501728 5.536069,-0.494625 9.682618,-0.08496 2.864639,0.283012 9.152452,3.18648 12.780762,4.026855 4.251654,0.984754 7.161621,-2.575193 7.161621,-2.575193 l 0.04394,-3.244635 c 0,0 -2.820275,3.603548 -6.974121,2.64258 -3.725326,-0.861832 -10.190389,-3.80427 -13.154298,-4.094235 -2.025754,-0.198187 -3.364888,-0.298605 -4.702149,-0.288577 z"/><path id="path4182" d="M 75.073924,86.469083 C 85.859226,76.27169 107.11742,56.28433 107.11742,56.28433 c 0,0 0.96792,-0.485024 1.98518,-0.427748 1.01726,0.05731 3.03294,2.22027 3.14782,3.205949 0.11482,0.98569 -0.11115,1.574924 -0.49372,2.214433 L 95.748203,74.753931 c 2.145053,-6.105157 13.626557,-14.300842 13.461757,-14.483356 -0.16479,-0.182514 -31.452667,28.983227 -31.452667,28.983227 -4.052735,4.040188 -7.419994,4.351151 -7.419994,4.351151 0,0 0.875729,-2.762452 4.736625,-7.13587 z" style="display:inline;opacity:.553;fill:#000;fill-opacity:.99107139;stroke:#000;stroke-width:2.71765304;stroke-miterlimit:4;stroke-dasharray:none;stroke-opacity:1;enable-background:new"/><path style="display:inline;opacity:1;fill:#fff;fill-opacity:1;stroke:#000;stroke-width:2.74950004;stroke-miterlimit:4;stroke-dasharray:none;stroke-opacity:1;paint-order:stroke fill markers;enable-background:new" id="path5241-3" d="m 74.466526,87.034181 c 9.699994,-9.6 28.824524,-28.422643 28.824524,-28.422643 0,0 0.89168,-0.480411 1.85673,-0.482885 0.96505,-0.0025 2.97811,1.808642 3.13526,2.676023 0.15715,0.867382 -0.0276,1.401321 -0.35803,1.987995 L 94.248034,75.124532 C 95.53253,70.816314 106.22676,63.144041 105.46652,62.03418 104.70628,60.924319 77.141737,89.361264 77.141737,89.361264 c -3.634662,3.791969 -6.804438,4.243689 -6.804438,4.243689 0,0 0.692421,-2.493568 4.129227,-6.570772 z"/></g><g id="layer1" style="display:inline"><g id="g4445" transform="translate(-0.35897949,0.41350926)" style="display:inline;stroke:none;enable-background:new"><path style="opacity:1;fill:url(#linearGradient4443);fill-opacity:1;stroke:none;stroke-width:.09375" id="path4138-4" d="M 6.2584928,6.7267973 H 121.25849 V 53.078658 L 6.2584928,53.121766 Z"/><rect id="rect4435" width="107.416" height="37.912" x="10.076" y="11.021" style="opacity:.99640288;fill:#000;fill-opacity:1;stroke:none;stroke-width:3.0999999;stroke-linecap:round;stroke-linejoin:miter;stroke-miterlimit:4;stroke-dasharray:none;stroke-opacity:1"/></g></g><g id="layer9" style="display:inline;opacity:1"><path id="path4414-5" d="m 101.26153,28.400291 h 2.5625 q 1.625,0 2.40625,-0.84375 0.78125,-0.859375 0.78125,-2.375 0,-1.375 -0.78125,-2.203125 -0.78125,-0.828125 -2.26563,-0.828125 -1.28125,0 -2.15625,0.75 -0.875,0.75 -0.875,1.96875 h -4.42187 l -0.03125,-0.09375 q -0.09375,-2.671875 2.046875,-4.40625 2.140625,-1.734375 5.312495,-1.734375 3.53125,0 5.625,1.6875 2.10938,1.6875 2.10938,4.8125 0,1.484375 -0.9375,2.828125 -0.9375,1.328125 -2.57813,2.078125 1.89063,0.671875 2.875,2.0625 1,1.390625 1,3.234375 0,3.125 -2.28125,4.921875 -2.26562,1.78125 -5.8125,1.78125 -3.17187,0 -5.45312,-1.671875 -2.265625,-1.6875 -2.1875,-4.75 l 0.03125,-0.09375 h 4.42187 q 0,1.3125 0.9375,2.171875 0.9375,0.84375 2.375,0.84375 1.57813,0 2.48438,-0.875 0.92187,-0.875 0.92187,-2.375 0,-1.796875 -0.90625,-2.625 -0.89062,-0.84375 -2.64062,-0.84375 h -2.5625 z" style="font-style:normal;font-variant:normal;font-weight:700;font-stretch:normal;font-size:medium;line-height:125%;font-family:Roboto;-inkscape-font-specification:'Roboto Bold';letter-spacing:0;word-spacing:0;display:inline;fill:#fff;fill-opacity:1;stroke:none;stroke-width:1px;stroke-linecap:butt;stroke-linejoin:miter;stroke-opacity:1;enable-background:new"/><text style="font-style:normal;font-variant:normal;font-weight:400;font-stretch:normal;font-size:32.20567703px;line-height:1.25;font-family:Roboto;-inkscape-font-specification:Roboto;letter-spacing:0;word-spacing:0;fill:#fff;fill-opacity:1;stroke:none;stroke-width:.37741026" id="text5442" x="12.119" y="42.027" transform="scale(1.0071191,0.9929312)" xml:space="preserve"><tspan id="tspan5440" x="12.119" y="42.027" style="font-style:normal;font-variant:normal;font-weight:400;font-stretch:normal;font-family:Roboto;-inkscape-font-specification:Roboto;fill:#fff;fill-opacity:1;stroke-width:.37741026">RHRE</tspan></text></g></svg>